<svg width="167" height="130" viewBox="0 0 167 130" fill="none" xmlns="http://www.w3.org/2000/svg">
<path fill-rule="evenodd" clip-rule="evenodd" d="M31 0H161V130H31V0Z" fill="white"/>
<path fill-rule="evenodd" clip-rule="evenodd" d="M54.0483 72.4067C53.0448 72.4067 52.2591 73.1088 52.2591 74.1332C52.2591 75.1584 53.0488 75.8564 54.0483 75.8564C55.0471 75.8564 55.8376 75.1537 55.8376 74.1332C55.8376 73.1088 55.0512 72.4067 54.0483 72.4067ZM54.0483 75.3627C53.3327 75.3627 52.802 74.84 52.802 74.1332C52.802 73.4271 53.3287 72.9004 54.0483 72.9004C54.7592 72.9004 55.294 73.4352 55.294 74.1332C55.294 74.8272 54.7544 75.3627 54.0483 75.3627ZM71.4587 66.3679H62.7484L63.7385 51.2283L58.0821 66.3679H49.9937L62.8273 32.1481H71.4337L70.4403 47.4954L76.2039 32.1481H84.293L71.4587 66.3679ZM72.5094 66.3679L85.3424 32.1481H93.4309L80.5978 66.3679H72.5094Z" fill="black"/>
<path fill-rule="evenodd" clip-rule="evenodd" d="M49.0611 54.5726C37.7584 67.846 27.0963 85.5073 36.5141 93.6402C45.6397 101.522 57.0463 96.8552 64.8238 93.7441C72.6013 90.6329 158.566 53.302 158.566 53.302C159.395 52.8872 159.24 52.3686 158.203 52.6276C157.785 52.7321 64.6168 77.9813 64.6168 77.9813C52.7941 81.3002 39.3136 74.067 49.0611 54.5726Z" fill="black"/>
<path fill-rule="evenodd" clip-rule="evenodd" d="M54.3537 74.2546C54.6046 74.2424 54.8008 74.1129 54.8008 73.7656C54.8008 73.3178 54.5081 73.2051 54.0192 73.2051H53.3164V75.0618H53.7851V74.2714H53.864L54.291 75.0618H54.8298L54.3537 74.2546ZM54.0529 73.9538H53.7858V73.5228H54.0111C54.1493 73.5228 54.3078 73.539 54.3078 73.7191C54.3078 73.9119 54.2161 73.9538 54.0529 73.9538ZM135.356 32.0435C134.353 32.0435 133.567 32.7462 133.567 33.77C133.567 34.7944 134.358 35.4925 135.356 35.4925C136.355 35.4925 137.146 34.7897 137.146 33.77C137.146 32.7462 136.361 32.0435 135.356 32.0435ZM135.356 35.0001C134.641 35.0001 134.11 34.4775 134.11 33.7707C134.11 33.0645 134.637 32.5378 135.356 32.5378C136.067 32.5378 136.603 33.0726 136.603 33.7707C136.603 34.4647 136.063 35.0001 135.356 35.0001Z" fill="black"/>
<path fill-rule="evenodd" clip-rule="evenodd" d="M135.662 33.8915C135.913 33.8793 136.11 33.7498 136.11 33.4025C136.11 32.9547 135.816 32.8421 135.328 32.8421H134.625V34.6981H135.093V33.9083H135.173L135.599 34.6981H136.139L135.662 33.8915ZM135.36 33.5907H135.093V33.1597H135.319C135.457 33.1597 135.616 33.1766 135.616 33.3566C135.616 33.5489 135.524 33.5907 135.36 33.5907ZM130.027 37.8517L132.201 32.1481H107.521L99.0466 42.4142L102.959 32.1481H94.7666L82.0361 66.3679H90.1245L95.5598 52.0579L95.932 66.3679L120.75 66.3139L123.113 59.7315H113.677L116.777 51.436H124.554L126.947 45.0586H119.17L121.836 37.8517H130.027ZM103.956 64.0863L103.438 46.251L115.667 32.8238L103.956 64.0863Z" fill="black"/>
</svg>
